<?xml version="1.0" encoding="UTF-8"?>
<!DOCTYPE svg PUBLIC "-//W3C//DTD SVG 1.1//EN" "http://www.w3.org/Graphics/SVG/1.1/DTD/svg11.dtd">
<svg xmlns="http://www.w3.org/2000/svg" version="1.1" width="322px" height="382px" style="shape-rendering:geometricPrecision; text-rendering:geometricPrecision; image-rendering:optimizeQuality; fill-r#000; clip-rule:evenodd" xmlns:xlink="http://www.w3.org/1999/xlink">
<g><path style="opacity:0.892" fill="#000" d="M 175.5,41.5 C 175.662,39.4727 175.495,37.4727 175,35.5C 172.977,32.4184 171.144,29.2518 169.5,26C 164.712,22.8703 159.712,22.037 154.5,23.5C 153.167,23.5 151.833,23.5 150.5,23.5C 157.339,19.4603 164.006,19.9603 170.5,25C 175.361,29.7325 177.027,35.2325 175.5,41.5 Z"/></g>
<g><path style="opacity:1" fill="#000" d="M 175.5,41.5 C 172.322,45.9719 168.322,49.8052 163.5,53C 159.026,53.5747 154.693,53.0747 150.5,51.5C 149.833,51.5 149.167,51.5 148.5,51.5C 148.663,48.314 147.663,45.6473 145.5,43.5C 144.34,39.5411 144.173,35.5411 145,31.5C 147.706,30.2947 149.539,28.2947 150.5,25.5C 152.026,25.0057 153.359,24.339 154.5,23.5C 159.712,22.037 164.712,22.8703 169.5,26C 171.144,29.2518 172.977,32.4184 175,35.5C 175.495,37.4727 175.662,39.4727 175.5,41.5 Z"/></g>
<g><path style="opacity:0.994" fill="#000" d="M 175.5,41.5 C 174.244,48.4212 170.244,52.7545 163.5,54.5C 159.466,54.4955 155.466,54.1621 151.5,53.5C 151.167,52.8333 150.833,52.1667 150.5,51.5C 154.693,53.0747 159.026,53.5747 163.5,53C 168.322,49.8052 172.322,45.9719 175.5,41.5 Z"/></g>
<g><path style="opacity:1" fill="#000" d="M 150.5,23.5 C 151.833,23.5 153.167,23.5 154.5,23.5C 153.359,24.339 152.026,25.0057 150.5,25.5C 149.539,28.2947 147.706,30.2947 145,31.5C 144.173,35.5411 144.34,39.5411 145.5,43.5C 147.663,45.6473 148.663,48.314 148.5,51.5C 140.64,44.641 139.473,36.641 145,27.5C 146.451,25.5359 148.284,24.2026 150.5,23.5 Z"/></g>
<g><path style="opacity:0.275" fill="#000" d="M 148.5,51.5 C 149.167,51.5 149.833,51.5 150.5,51.5C 150.833,52.1667 151.167,52.8333 151.5,53.5C 149.973,53.573 148.973,52.9063 148.5,51.5 Z"/></g>
<g><path style="opacity:0.169" fill="#000" d="M 151.5,53.5 C 155.466,54.1621 159.466,54.4955 163.5,54.5C 162.207,55.1582 160.707,55.4915 159,55.5C 156.179,55.5922 153.679,54.9256 151.5,53.5 Z"/></g>
<g><path style="opacity:0.839" fill="#000" d="M 79.5,62.5 C 74.1667,62.5 68.8333,62.5 63.5,62.5C 63.6287,64.2161 63.962,65.8828 64.5,67.5C 61.4645,66.0442 60.1312,63.8775 60.5,61C 67.0563,60.3399 73.3897,60.8399 79.5,62.5 Z"/></g>
<g><path style="opacity:1" fill="#000" d="M 247.5,61.5 C 250.653,61.1569 252.987,61.4902 254.5,62.5C 247.467,63.0037 240.467,63.8371 233.5,65C 226.597,67.2794 219.597,69.1128 212.5,70.5C 215.088,68.4082 218.088,67.0749 221.5,66.5C 225.534,66.4835 229.201,65.4835 232.5,63.5C 237.234,61.8554 242.234,61.1888 247.5,61.5 Z"/></g>
<g><path style="opacity:1" fill="#000" d="M 79.5,62.5 C 81.4147,62.2155 83.0813,62.5489 84.5,63.5C 87.6269,66.055 91.2935,67.055 95.5,66.5C 98.9116,67.0749 101.912,68.4082 104.5,70.5C 102.801,70.6204 101.135,70.9537 99.5,71.5C 94.6469,68.7951 89.3136,67.4617 83.5,67.5C 83.5,66.5 83.5,65.5 83.5,64.5C 79.9582,64.6198 76.4582,64.2865 73,63.5C 71.1999,64.3784 69.3666,65.045 67.5,65.5C 68.0715,67.36 68.0715,69.0267 67.5,70.5C 66.1667,69.8333 65.1667,68.8333 64.5,67.5C 63.962,65.8828 63.6287,64.2161 63.5,62.5C 68.8333,62.5 74.1667,62.5 79.5,62.5 Z"/></g>
<g><path style="opacity:0.812" fill="#000" d="M 232.5,63.5 C 229.201,65.4835 225.534,66.4835 221.5,66.5C 224.854,64.7424 228.521,63.7424 232.5,63.5 Z"/></g>
<g><path style="opacity:0.996" fill="#000" d="M 84.5,63.5 C 88.479,63.7424 92.1456,64.7424 95.5,66.5C 91.2935,67.055 87.6269,66.055 84.5,63.5 Z"/></g>
<g><path style="opacity:1" fill="#000" d="M 247.5,61.5 C 250.304,60.3622 253.304,60.1955 256.5,61C 257.022,61.5613 257.355,62.228 257.5,63C 252.675,68.9913 247.342,74.4913 241.5,79.5C 241.019,75.6509 242.686,73.6509 246.5,73.5C 246.5,71.8333 246.5,70.1667 246.5,68.5C 249.938,67.456 252.604,65.456 254.5,62.5C 252.987,61.4902 250.653,61.1569 247.5,61.5 Z"/></g>
<g><path style="opacity:1" fill="#000" d="M 67.5,70.5 C 73.2113,72.8778 77.2113,76.8778 79.5,82.5C 75.1667,78.8333 71.1667,74.8333 67.5,70.5 Z"/></g>
<g><path style="opacity:1" fill="#000" d="M 104.5,70.5 C 107.331,71.0787 109.664,72.412 111.5,74.5C 109.847,73.3955 108.18,73.2288 106.5,74C 105.695,72.8873 105.028,71.7206 104.5,70.5 Z"/></g>
<g><path style="opacity:1" fill="#000" d="M 212.5,70.5 C 211.402,71.397 211.402,72.2303 212.5,73C 208.285,75.2927 203.952,77.126 199.5,78.5C 199.953,77.5416 200.619,76.7083 201.5,76C 204.91,73.6284 208.577,71.7951 212.5,70.5 Z"/></g>
<g><path style="opacity:1" fill="#000" d="M 104.5,70.5 C 105.028,71.7206 105.695,72.8873 106.5,74C 108.18,73.2288 109.847,73.3955 111.5,74.5C 113.775,76.6293 116.275,78.6293 119,80.5C 119.483,81.448 119.649,82.448 119.5,83.5C 122.756,84.4657 125.756,85.7991 128.5,87.5C 128.877,89.258 129.544,90.9246 130.5,92.5C 133.112,95.38 135.946,98.0467 139,100.5C 138.855,103.923 140.355,105.923 143.5,106.5C 143.427,108.027 144.094,109.027 145.5,109.5C 145.833,112.167 146.167,114.833 146.5,117.5C 147.5,117.5 148.5,117.5 149.5,117.5C 149.5,117.833 149.5,118.167 149.5,118.5C 150.488,122.485 151.488,126.485 152.5,130.5C 154.327,138.393 154.827,146.393 154,154.5C 152.67,153.418 151.17,152.751 149.5,152.5C 148.183,148.517 145.517,145.85 141.5,144.5C 141.291,143.078 140.791,141.745 140,140.5C 136.5,137 133,133.5 129.5,130C 128.255,129.209 126.922,128.709 125.5,128.5C 125.291,127.078 124.791,125.745 124,124.5C 120.719,121.43 117.553,118.264 114.5,115C 113.552,114.517 112.552,114.351 111.5,114.5C 108.321,108.643 103.988,103.643 98.5,99.5C 97.5832,98.8728 96.5832,98.5394 95.5,98.5C 93.1667,96.8333 91.1667,94.8333 89.5,92.5C 87.85,87.5166 84.5167,84.1833 79.5,82.5C 77.2113,76.8778 73.2113,72.8778 67.5,70.5C 68.0715,69.0267 68.0715,67.36 67.5,65.5C 69.3666,65.045 71.1999,64.3784 73,63.5C 76.4582,64.2865 79.9582,64.6198 83.5,64.5C 83.5,65.5 83.5,66.5 83.5,67.5C 89.3136,67.4617 94.6469,68.7951 99.5,71.5C 101.135,70.9537 102.801,70.6204 104.5,70.5 Z"/></g>
<g><path style="opacity:1" fill="#000" d="M 254.5,62.5 C 252.604,65.456 249.938,67.456 246.5,68.5C 246.5,70.1667 246.5,71.8333 246.5,73.5C 242.686,73.6509 241.019,75.6509 241.5,79.5C 239.833,79.5 238.167,79.5 236.5,79.5C 236.5,80.5 236.5,81.5 236.5,82.5C 234.856,82.7135 233.356,82.3802 232,81.5C 231.667,83.1667 231.333,84.8333 231,86.5C 230.333,85.1667 229.667,85.1667 229,86.5C 228.506,88.1341 228.34,89.8008 228.5,91.5C 225.459,91.4056 223.793,92.9056 223.5,96C 222.552,96.4828 221.552,96.6495 220.5,96.5C 220.5,97.5 220.5,98.5 220.5,99.5C 218.097,99.393 216.264,100.393 215,102.5C 214.667,102.167 214.333,101.833 214,101.5C 212.681,103.25 212.181,105.25 212.5,107.5C 209.459,107.406 207.793,108.906 207.5,112C 205.235,113.118 202.901,113.951 200.5,114.5C 200.5,116.167 200.5,117.833 200.5,119.5C 199.127,119.343 197.793,119.51 196.5,120C 196.833,120.333 197.167,120.667 197.5,121C 196.027,121.71 195.36,122.876 195.5,124.5C 191.331,124.663 188.498,126.663 187,130.5C 186.683,128.699 186.016,128.366 185,129.5C 184.667,131.5 184.333,133.5 184,135.5C 183.692,134.692 183.192,134.025 182.5,133.5C 181.534,135.396 181.201,137.396 181.5,139.5C 178.05,138.756 176.384,140.09 176.5,143.5C 175.07,143.579 173.736,143.246 172.5,142.5C 170.422,144.39 169.089,146.724 168.5,149.5C 167.624,150.251 166.624,150.751 165.5,151C 166.993,152.156 166.826,152.99 165,153.5C 163.97,153.164 163.47,152.497 163.5,151.5C 164.384,143.665 165.05,135.665 165.5,127.5C 166.15,125.565 166.483,123.565 166.5,121.5C 166.5,121.167 166.5,120.833 166.5,120.5C 168.411,120.426 169.578,119.426 170,117.5C 170.495,115.527 170.662,113.527 170.5,111.5C 171.906,111.027 172.573,110.027 172.5,108.5C 174.017,108.489 175.184,107.823 176,106.5C 176.505,104.482 177.005,102.482 177.5,100.5C 179.262,99.7377 180.262,98.4044 180.5,96.5C 182.914,95.0892 184.581,93.0892 185.5,90.5C 191.608,88.2038 196.275,84.2038 199.5,78.5C 203.952,77.126 208.285,75.2927 212.5,73C 211.402,72.2303 211.402,71.397 212.5,70.5C 219.597,69.1128 226.597,67.2794 233.5,65C 240.467,63.8371 247.467,63.0037 254.5,62.5 Z"/></g>
<g><path style="opacity:1" fill="#000" d="M 241.5,79.5 C 239.167,82.5 236.5,85.1667 233.5,87.5C 233.5,86.1667 233.5,84.8333 233.5,83.5C 234.791,83.7373 235.791,83.404 236.5,82.5C 236.5,81.5 236.5,80.5 236.5,79.5C 238.167,79.5 239.833,79.5 241.5,79.5 Z"/></g>
<g><path style="opacity:1" fill="#000" d="M 111.5,74.5 C 118.075,77.6236 123.742,81.957 128.5,87.5C 125.756,85.7991 122.756,84.4657 119.5,83.5C 119.649,82.448 119.483,81.448 119,80.5C 116.275,78.6293 113.775,76.6293 111.5,74.5 Z"/></g>
<g><path style="opacity:1" fill="#000" d="M 79.5,82.5 C 84.5167,84.1833 87.85,87.5166 89.5,92.5C 85.8333,89.5 82.5,86.1667 79.5,82.5 Z"/></g>
<g><path style="opacity:0.678" fill="#000" d="M 196.5,80.5 C 195.415,82.5869 193.749,83.9202 191.5,84.5C 192.585,82.4131 194.251,81.0798 196.5,80.5 Z"/></g>
<g><path style="opacity:1" fill="#000" d="M 199.5,78.5 C 196.275,84.2038 191.608,88.2038 185.5,90.5C 187.167,88.1667 189.167,86.1667 191.5,84.5C 193.749,83.9202 195.415,82.5869 196.5,80.5C 196.973,79.0937 197.973,78.427 199.5,78.5 Z"/></g>
<g><path style="opacity:1" fill="#000" d="M 128.5,87.5 C 131.167,89.5 133.5,91.8333 135.5,94.5C 135.427,96.0269 136.094,97.0269 137.5,97.5C 139.262,98.2623 140.262,99.5956 140.5,101.5C 140.427,103.027 141.094,104.027 142.5,104.5C 143.338,104.842 143.672,105.508 143.5,106.5C 140.355,105.923 138.855,103.923 139,100.5C 135.946,98.0467 133.112,95.38 130.5,92.5C 129.544,90.9246 128.877,89.258 128.5,87.5 Z"/></g>
<g><path style="opacity:0.306" fill="#000" d="M 185.5,90.5 C 184.581,93.0892 182.914,95.0892 180.5,96.5C 181.419,93.9108 183.086,91.9108 185.5,90.5 Z"/></g>
<g><path style="opacity:0.31" fill="#000" d="M 135.5,94.5 C 136.906,94.9731 137.573,95.9731 137.5,97.5C 136.094,97.0269 135.427,96.0269 135.5,94.5 Z"/></g>
<g><path style="opacity:0.6" fill="#000" d="M 180.5,96.5 C 180.262,98.4044 179.262,99.7377 177.5,100.5C 177.738,98.5956 178.738,97.2623 180.5,96.5 Z"/></g>
<g><path style="opacity:1" fill="#000" d="M 95.5,98.5 C 96.5832,98.5394 97.5832,98.8728 98.5,99.5C 103.988,103.643 108.321,108.643 111.5,114.5C 105.833,109.5 100.5,104.167 95.5,98.5 Z"/></g>
<g><path style="opacity:0.275" fill="#000" d="M 140.5,101.5 C 141.906,101.973 142.573,102.973 142.5,104.5C 141.094,104.027 140.427,103.027 140.5,101.5 Z"/></g>
<g><path style="opacity:1" fill="#000" d="M 177.5,100.5 C 177.005,102.482 176.505,104.482 176,106.5C 175.184,107.823 174.017,108.489 172.5,108.5C 173.383,105.296 175.05,102.629 177.5,100.5 Z"/></g>
<g><path style="opacity:0.271" fill="#000" d="M 143.5,106.5 C 144.906,106.973 145.573,107.973 145.5,109.5C 144.094,109.027 143.427,108.027 143.5,106.5 Z"/></g>
<g><path style="opacity:0.153" fill="#000" d="M 172.5,108.5 C 172.573,110.027 171.906,111.027 170.5,111.5C 170.427,109.973 171.094,108.973 172.5,108.5 Z"/></g>
<g><path style="opacity:0.961" fill="#000" d="M 111.5,114.5 C 112.552,114.351 113.552,114.517 114.5,115C 117.553,118.264 120.719,121.43 124,124.5C 124.791,125.745 125.291,127.078 125.5,128.5C 120.5,124.167 115.833,119.5 111.5,114.5 Z"/></g>
<g><path style="opacity:1" fill="#000" d="M 145.5,109.5 C 147.341,111.849 148.674,114.515 149.5,117.5C 148.5,117.5 147.5,117.5 146.5,117.5C 146.167,114.833 145.833,112.167 145.5,109.5 Z"/></g>
<g><path style="opacity:1" fill="#000" d="M 170.5,111.5 C 170.662,113.527 170.495,115.527 170,117.5C 169.578,119.426 168.411,120.426 166.5,120.5C 167.463,117.256 168.796,114.256 170.5,111.5 Z"/></g>
<g><path style="opacity:1" fill="#000" d="M 236.5,82.5 C 235.791,83.404 234.791,83.7373 233.5,83.5C 233.5,84.8333 233.5,86.1667 233.5,87.5C 216.5,105.167 199.167,122.5 181.5,139.5C 181.201,137.396 181.534,135.396 182.5,133.5C 183.192,134.025 183.692,134.692 184,135.5C 184.333,133.5 184.667,131.5 185,129.5C 186.016,128.366 186.683,128.699 187,130.5C 188.498,126.663 191.331,124.663 195.5,124.5C 195.36,122.876 196.027,121.71 197.5,121C 197.167,120.667 196.833,120.333 196.5,120C 197.793,119.51 199.127,119.343 200.5,119.5C 200.5,117.833 200.5,116.167 200.5,114.5C 202.901,113.951 205.235,113.118 207.5,112C 207.793,108.906 209.459,107.406 212.5,107.5C 212.181,105.25 212.681,103.25 214,101.5C 214.333,101.833 214.667,102.167 215,102.5C 216.264,100.393 218.097,99.393 220.5,99.5C 220.5,98.5 220.5,97.5 220.5,96.5C 221.552,96.6495 222.552,96.4828 223.5,96C 223.793,92.9056 225.459,91.4056 228.5,91.5C 228.34,89.8008 228.506,88.1341 229,86.5C 229.667,85.1667 230.333,85.1667 231,86.5C 231.333,84.8333 231.667,83.1667 232,81.5C 233.356,82.3802 234.856,82.7135 236.5,82.5 Z"/></g>
<g><path style="opacity:0.973" fill="#000" d="M 149.5,118.5 C 152.676,124.365 154.676,130.699 155.5,137.5C 154.349,135.221 153.349,132.888 152.5,130.5C 151.488,126.485 150.488,122.485 149.5,118.5 Z"/></g>
<g><path style="opacity:0.612" fill="#000" d="M 166.5,121.5 C 166.483,123.565 166.15,125.565 165.5,127.5C 164.833,128.5 164.167,129.5 163.5,130.5C 163.528,127.084 164.528,124.084 166.5,121.5 Z"/></g>
<g><path style="opacity:1" fill="#000" d="M 125.5,128.5 C 126.922,128.709 128.255,129.209 129.5,130C 133,133.5 136.5,137 140,140.5C 140.791,141.745 141.291,143.078 141.5,144.5C 135.833,139.5 130.5,134.167 125.5,128.5 Z"/></g>
<g><path style="opacity:0.443" fill="#000" d="M 252.5,133.5 C 240.168,132.197 227.835,132.197 215.5,133.5C 221.601,132.028 227.935,131.361 234.5,131.5C 240.74,131.333 246.74,132 252.5,133.5 Z"/></g>
<g><path style="opacity:0.094" fill="#000" d="M 95.5,133.5 C 95.5,133.167 95.5,132.833 95.5,132.5C 99.1224,132.322 102.456,132.989 105.5,134.5C 102.167,134.167 98.8333,133.833 95.5,133.5 Z"/></g>
<g><path style="opacity:1" fill="#000" d="M 95.5,132.5 C 95.5,132.833 95.5,133.167 95.5,133.5C 83.822,133.515 72.1553,133.848 60.5,134.5C 63.5767,133.144 66.9101,132.311 70.5,132C 78.9119,131.199 87.2452,131.366 95.5,132.5 Z"/></g>
<g><path style="opacity:1" fill="#000" d="M 252.5,133.5 C 252.833,133.5 253.167,133.5 253.5,133.5C 258.868,137.174 264.868,139.174 271.5,139.5C 271.937,141.074 272.937,142.241 274.5,143C 278.601,143.926 282.268,145.592 285.5,148C 288.651,150.763 291.651,153.763 294.5,157C 295.793,157.49 297.127,157.657 298.5,157.5C 298.5,158.167 298.5,158.833 298.5,159.5C 280.012,160.833 261.179,161.5 242,161.5C 219.158,161.429 196.325,161.096 173.5,160.5C 173.5,159.5 173.5,158.5 173.5,157.5C 173.5,156.833 173.5,156.167 173.5,155.5C 176.764,153.906 179.431,151.573 181.5,148.5C 183.966,147.702 185.966,146.369 187.5,144.5C 189.848,144.408 191.514,143.408 192.5,141.5C 196.165,141.498 199.165,140.165 201.5,137.5C 203.898,137.741 205.898,137.074 207.5,135.5C 210.495,135.706 213.162,135.04 215.5,133.5C 227.835,132.197 240.168,132.197 252.5,133.5 Z"/></g>
<g><path style="opacity:1" fill="#000" d="M 95.5,133.5 C 98.8333,133.833 102.167,134.167 105.5,134.5C 107.099,134.232 108.432,134.566 109.5,135.5C 112.591,138.199 116.258,139.533 120.5,139.5C 121.609,139.557 122.609,139.89 123.5,140.5C 123.821,142.048 124.821,142.715 126.5,142.5C 127.581,145.912 129.915,147.912 133.5,148.5C 135.821,152.274 139.154,154.608 143.5,155.5C 143.751,157.17 144.418,158.67 145.5,160C 143.167,160.333 140.833,160.667 138.5,161C 99.5,161.667 60.5,161.667 21.5,161C 20.8333,160.667 20.1667,160.333 19.5,160C 20.2524,159.329 20.5858,158.496 20.5,157.5C 21.5,156.167 22.5,154.833 23.5,153.5C 25.7488,152.92 27.4154,151.587 28.5,149.5C 29.4959,149.414 30.3292,149.748 31,150.5C 32.4907,148.996 34.324,148.163 36.5,148C 38.5088,145.04 40.8421,142.54 43.5,140.5C 47.8107,139.351 52.144,138.184 56.5,137C 57.8584,136.066 59.1917,135.232 60.5,134.5C 72.1553,133.848 83.822,133.515 95.5,133.5 Z"/></g>
<g><path style="opacity:0.749" fill="#000" d="M 215.5,133.5 C 213.162,135.04 210.495,135.706 207.5,135.5C 209.905,134.232 212.572,133.565 215.5,133.5 Z"/></g>
<g><path style="opacity:0.718" fill="#000" d="M 207.5,135.5 C 205.898,137.074 203.898,137.741 201.5,137.5C 203.214,136.262 205.214,135.595 207.5,135.5 Z"/></g>
<g><path style="opacity:0.875" fill="#000" d="M 60.5,134.5 C 59.1917,135.232 57.8584,136.066 56.5,137C 52.144,138.184 47.8107,139.351 43.5,140.5C 48.6668,137.332 54.3335,135.332 60.5,134.5 Z"/></g>
<g><path style="opacity:0.165" fill="#000" d="M 163.5,130.5 C 162.92,134.81 162.586,139.143 162.5,143.5C 162.5,144.167 162.5,144.833 162.5,145.5C 161.839,143.866 161.506,142.033 161.5,140C 161.421,136.549 162.087,133.382 163.5,130.5 Z"/></g>
<g><path style="opacity:1" fill="#000" d="M 253.5,133.5 C 259.932,134.533 265.932,136.533 271.5,139.5C 264.868,139.174 258.868,137.174 253.5,133.5 Z"/></g>
<g><path style="opacity:1" fill="#000" d="M 109.5,135.5 C 113.537,136.065 117.203,137.399 120.5,139.5C 116.258,139.533 112.591,138.199 109.5,135.5 Z"/></g>
<g><path style="opacity:1" fill="#000" d="M 165.5,127.5 C 165.05,135.665 164.384,143.665 163.5,151.5C 163.806,148.615 163.473,145.948 162.5,143.5C 162.586,139.143 162.92,134.81 163.5,130.5C 164.167,129.5 164.833,128.5 165.5,127.5 Z"/></g>
<g><path style="opacity:0.933" fill="#000" d="M 201.5,137.5 C 199.165,140.165 196.165,141.498 192.5,141.5C 195.088,139.408 198.088,138.075 201.5,137.5 Z"/></g>
<g><path style="opacity:0.808" fill="#000" d="M 123.5,140.5 C 124.71,140.932 125.71,141.599 126.5,142.5C 124.821,142.715 123.821,142.048 123.5,140.5 Z"/></g>
<g><path style="opacity:1" fill="#000" d="M 181.5,139.5 C 175.854,145.812 169.854,151.812 163.5,157.5C 162.509,153.555 162.176,149.555 162.5,145.5C 162.5,144.833 162.5,144.167 162.5,143.5C 163.473,145.948 163.806,148.615 163.5,151.5C 163.47,152.497 163.97,153.164 165,153.5C 166.826,152.99 166.993,152.156 165.5,151C 166.624,150.751 167.624,150.251 168.5,149.5C 169.089,146.724 170.422,144.39 172.5,142.5C 173.736,143.246 175.07,143.579 176.5,143.5C 176.384,140.09 178.05,138.756 181.5,139.5 Z"/></g>
<g><path style="opacity:0.987" fill="#000" d="M 152.5,130.5 C 153.349,132.888 154.349,135.221 155.5,137.5C 155.5,138.5 155.5,139.5 155.5,140.5C 155.666,146.176 155.499,151.843 155,157.5C 153.961,156.29 152.794,155.29 151.5,154.5C 150.5,154.167 149.833,153.5 149.5,152.5C 151.17,152.751 152.67,153.418 154,154.5C 154.827,146.393 154.327,138.393 152.5,130.5 Z"/></g>
<g><path style="opacity:0.533" fill="#000" d="M 192.5,141.5 C 191.514,143.408 189.848,144.408 187.5,144.5C 188.659,142.75 190.326,141.75 192.5,141.5 Z"/></g>
<g><path style="opacity:1" fill="#000" d="M 271.5,139.5 C 277.457,141.476 282.79,144.476 287.5,148.5C 287.973,149.906 288.973,150.573 290.5,150.5C 293.784,152.117 296.451,154.45 298.5,157.5C 297.127,157.657 295.793,157.49 294.5,157C 291.651,153.763 288.651,150.763 285.5,148C 282.268,145.592 278.601,143.926 274.5,143C 272.937,142.241 271.937,141.074 271.5,139.5 Z"/></g>
<g><path style="opacity:1" fill="#000" d="M 141.5,144.5 C 145.517,145.85 148.183,148.517 149.5,152.5C 146.5,150.167 143.833,147.5 141.5,144.5 Z"/></g>
<g><path style="opacity:0.451" fill="#000" d="M 187.5,144.5 C 185.966,146.369 183.966,147.702 181.5,148.5C 182.802,146.178 184.802,144.845 187.5,144.5 Z"/></g>
<g><path style="opacity:1" fill="#000" d="M 43.5,140.5 C 40.8421,142.54 38.5088,145.04 36.5,148C 34.324,148.163 32.4907,148.996 31,150.5C 30.3292,149.748 29.4959,149.414 28.5,149.5C 32.6623,145.246 37.6623,142.246 43.5,140.5 Z"/></g>
<g><path style="opacity:0.039" fill="#000" d="M 287.5,148.5 C 289.027,148.427 290.027,149.094 290.5,150.5C 288.973,150.573 287.973,149.906 287.5,148.5 Z"/></g>
<g><path style="opacity:0.631" fill="#000" d="M 181.5,148.5 C 179.431,151.573 176.764,153.906 173.5,155.5C 175.569,152.427 178.236,150.094 181.5,148.5 Z"/></g>
<g><path style="opacity:1" fill="#000" d="M 126.5,142.5 C 133.075,145.624 138.742,149.957 143.5,155.5C 139.154,154.608 135.821,152.274 133.5,148.5C 129.915,147.912 127.581,145.912 126.5,142.5 Z"/></g>
<g><path style="opacity:0.894" fill="#000" d="M 28.5,149.5 C 27.4154,151.587 25.7488,152.92 23.5,153.5C 24.5846,151.413 26.2512,150.08 28.5,149.5 Z"/></g>
<g><path style="opacity:0.004" fill="#000" d="M 155.5,140.5 C 156.652,146.327 157.152,152.327 157,158.5C 154.089,159.099 152.256,157.765 151.5,154.5C 152.794,155.29 153.961,156.29 155,157.5C 155.499,151.843 155.666,146.176 155.5,140.5 Z"/></g>
<g><path style="opacity:1" fill="#000" d="M 143.5,155.5 C 145.167,156.5 146.5,157.833 147.5,159.5C 145.492,161.083 143.159,162.083 140.5,162.5C 140.167,162.5 139.833,162.5 139.5,162.5C 98.4946,162.833 57.4946,162.5 16.5,161.5C 17.5213,159.812 18.8546,158.479 20.5,157.5C 20.5858,158.496 20.2524,159.329 19.5,160C 20.1667,160.333 20.8333,160.667 21.5,161C 60.5,161.667 99.5,161.667 138.5,161C 140.833,160.667 143.167,160.333 145.5,160C 144.418,158.67 143.751,157.17 143.5,155.5 Z"/></g>
<g><path style="opacity:0.337" fill="#000" d="M 147.5,159.5 C 150.14,160.794 150.14,162.127 147.5,163.5C 145.164,163.377 142.831,163.044 140.5,162.5C 143.159,162.083 145.492,161.083 147.5,159.5 Z"/></g>
<g><path style="opacity:0.3" fill="#000" d="M 23.5,153.5 C 22.5,154.833 21.5,156.167 20.5,157.5C 18.8546,158.479 17.5213,159.812 16.5,161.5C 57.4946,162.5 98.4946,162.833 139.5,162.5C 98.3354,163.665 57.002,163.831 15.5,163C 14.7203,161.927 14.887,160.76 16,159.5C 18.1057,156.882 20.6057,154.882 23.5,153.5 Z"/></g>
<g><path style="opacity:0.298" fill="#000" d="M 173.5,155.5 C 173.5,156.167 173.5,156.833 173.5,157.5C 172.038,158.458 170.705,159.624 169.5,161C 173.5,161.333 177.5,161.667 181.5,162C 220.832,162.5 260.165,162.667 299.5,162.5C 299.737,161.209 299.404,160.209 298.5,159.5C 298.5,158.833 298.5,158.167 298.5,157.5C 301.238,158.663 302.238,160.497 301.5,163C 259.167,163.667 216.833,163.667 174.5,163C 172.1,162.814 169.766,162.314 167.5,161.5C 169.188,159.146 171.188,157.146 173.5,155.5 Z"/></g>
<g><path style="opacity:0.999" fill="#000" d="M 173.5,157.5 C 173.5,158.5 173.5,159.5 173.5,160.5C 196.325,161.096 219.158,161.429 242,161.5C 261.179,161.5 280.012,160.833 298.5,159.5C 299.404,160.209 299.737,161.209 299.5,162.5C 260.165,162.667 220.832,162.5 181.5,162C 177.5,161.667 173.5,161.333 169.5,161C 170.705,159.624 172.038,158.458 173.5,157.5 Z"/></g>
<g><path style="opacity:0.725" fill="#000" d="M 147.5,173.5 C 147.5,172.167 147.5,170.833 147.5,169.5C 146.5,169.5 145.5,169.5 144.5,169.5C 138.491,169.701 132.491,170.034 126.5,170.5C 133.922,168.675 141.422,167.675 149,167.5C 151.945,169.874 151.445,171.874 147.5,173.5 Z"/></g>
<g><path style="opacity:0.715" fill="#000" d="M 185.5,169.5 C 181.5,169.5 177.5,169.5 173.5,169.5C 171.473,169.338 169.473,169.505 167.5,170C 168.056,170.383 168.389,170.883 168.5,171.5C 167.078,171.25 166.078,170.417 165.5,169C 167.199,168.042 169.033,167.542 171,167.5C 176.008,167.964 180.841,168.63 185.5,169.5 Z"/></g>
<g><path style="opacity:1" fill="#000" d="M 173.5,169.5 C 172.032,170.779 171.365,172.446 171.5,174.5C 170.167,173.833 169.167,172.833 168.5,171.5C 168.389,170.883 168.056,170.383 167.5,170C 169.473,169.505 171.473,169.338 173.5,169.5 Z"/></g>
<g><path style="opacity:0.694" fill="#000" d="M 125.5,170.5 C 123.485,171.924 121.152,172.59 118.5,172.5C 120.515,171.076 122.848,170.41 125.5,170.5 Z"/></g>
<g><path style="opacity:1" fill="#000" d="M 144.5,169.5 C 145.5,169.5 146.5,169.5 147.5,169.5C 147.5,170.833 147.5,172.167 147.5,173.5C 145.5,176.167 143.167,178.5 140.5,180.5C 140.5,179.167 140.5,177.833 140.5,176.5C 141.5,176.5 142.5,176.5 143.5,176.5C 143.328,174.508 143.995,172.842 145.5,171.5C 145.137,170.817 144.804,170.15 144.5,169.5 Z"/></g>
<g><path style="opacity:0.643" fill="#000" d="M 160.5,172.5 C 159.448,172.351 158.448,172.517 157.5,173C 155.229,175.782 152.563,177.949 149.5,179.5C 151.962,176.536 154.629,173.703 157.5,171C 158.998,170.415 159.998,170.915 160.5,172.5 Z"/></g>
<g><path style="opacity:1" fill="#000" d="M 173.5,169.5 C 177.5,169.5 181.5,169.5 185.5,169.5C 189.078,169.549 192.411,170.215 195.5,171.5C 197.913,172.687 200.247,174.021 202.5,175.5C 205.438,176.489 208.438,177.156 211.5,177.5C 213.153,177.66 214.486,178.326 215.5,179.5C 216.486,181.408 218.152,182.408 220.5,182.5C 221.492,182.328 222.158,182.662 222.5,183.5C 222.628,185.09 223.295,186.423 224.5,187.5C 226.737,189.748 229.404,191.081 232.5,191.5C 234.064,195.729 236.731,199.063 240.5,201.5C 241.724,204.951 244.057,207.284 247.5,208.5C 247.427,210.027 248.094,211.027 249.5,211.5C 249.427,213.027 250.094,214.027 251.5,214.5C 251.833,217.167 252.167,219.833 252.5,222.5C 253.5,222.5 254.5,222.5 255.5,222.5C 256.91,231.634 258.743,240.634 261,249.5C 261.383,250.056 261.883,250.389 262.5,250.5C 262.823,254.226 262.489,257.893 261.5,261.5C 260.478,261.145 259.811,260.478 259.5,259.5C 257.103,256.304 255.936,252.638 256,248.5C 255.333,249.833 254.667,249.833 254,248.5C 253.517,249.448 253.351,250.448 253.5,251.5C 249.955,250.297 246.622,248.63 243.5,246.5C 244.791,245.527 244.791,244.527 243.5,243.5C 245.756,242.579 246.756,240.912 246.5,238.5C 244.315,238.888 242.482,239.888 241,241.5C 239.681,240.681 238.515,239.681 237.5,238.5C 239.76,236.593 239.927,234.593 238,232.5C 237.517,233.448 237.351,234.448 237.5,235.5C 234.646,234.974 231.979,233.974 229.5,232.5C 223.167,226.833 217.167,220.833 211.5,214.5C 212.791,213.527 212.791,212.527 211.5,211.5C 213.297,210.305 214.297,208.638 214.5,206.5C 212.315,206.888 210.482,207.888 209,209.5C 205.2,207.739 204.866,205.739 208,203.5C 208.49,202.207 208.657,200.873 208.5,199.5C 206.263,198.551 203.929,197.884 201.5,197.5C 201.719,198.675 201.386,199.675 200.5,200.5C 199.299,198.091 197.633,196.091 195.5,194.5C 196.529,194.704 197.529,194.204 198.5,193C 196.592,191.065 194.758,191.231 193,193.5C 191.862,193.011 190.695,192.678 189.5,192.5C 183.167,186.833 177.167,180.833 171.5,174.5C 171.365,172.446 172.032,170.779 173.5,169.5 Z"/></g>
<g><path style="opacity:1" fill="#000" d="M 195.5,171.5 C 201.319,172.418 206.653,174.418 211.5,177.5C 208.438,177.156 205.438,176.489 202.5,175.5C 200.247,174.021 197.913,172.687 195.5,171.5 Z"/></g>
<g><path style="opacity:0.973" fill="#000" d="M 118.5,172.5 C 114.541,174.973 110.207,176.64 105.5,177.5C 109.377,174.871 113.71,173.204 118.5,172.5 Z"/></g>
<g><path style="opacity:1" fill="#000" d="M 162.5,174.5 C 165.167,176.5 167.5,178.833 169.5,181.5C 165.833,180.5 163.5,178.167 162.5,174.5 Z"/></g>
<g><path style="opacity:1" fill="#000" d="M 140.5,180.5 C 139.833,181.833 138.833,182.833 137.5,183.5C 136.167,183.5 135.5,184.167 135.5,185.5C 135.5,186.167 135.167,186.5 134.5,186.5C 134.167,186.5 133.833,186.5 133.5,186.5C 132.862,184.54 132.862,182.707 133.5,181C 134.549,180.508 135.549,180.674 136.5,181.5C 137.167,180.167 137.833,178.833 138.5,177.5C 139.176,178.602 139.842,179.602 140.5,180.5 Z"/></g>
<g><path style="opacity:0.988" fill="#000" d="M 215.5,179.5 C 217.674,179.75 219.341,180.75 220.5,182.5C 218.152,182.408 216.486,181.408 215.5,179.5 Z"/></g>
<g><path style="opacity:1" fill="#000" d="M 105.5,177.5 C 99.9791,183.19 101.312,186.023 109.5,186C 107.336,188.33 104.669,188.997 101.5,188C 100.55,185.09 98.5497,183.923 95.5,184.5C 95.8333,183.833 96.1667,183.167 96.5,182.5C 99.0078,180.076 102.008,178.41 105.5,177.5 Z"/></g>
<g><path style="opacity:0.545" fill="#000" d="M 96.5,182.5 C 96.1667,183.167 95.8333,183.833 95.5,184.5C 94.8333,184.5 94.1667,184.5 93.5,184.5C 93.9731,183.094 94.9731,182.427 96.5,182.5 Z"/></g>
<g><path style="opacity:0.008" fill="#000" d="M 137.5,183.5 C 137.167,184.5 136.5,185.167 135.5,185.5C 135.5,184.167 136.167,183.5 137.5,183.5 Z"/></g>
<g><path style="opacity:1" fill="#000" d="M 160.5,172.5 C 161.5,172.833 162.167,173.5 162.5,174.5C 163.5,178.167 165.833,180.5 169.5,181.5C 169.525,184.179 170.858,185.512 173.5,185.5C 173.195,189.201 174.862,191.534 178.5,192.5C 179.309,194.071 179.643,195.738 179.5,197.5C 178.5,197.5 177.5,197.5 176.5,197.5C 176.567,198.959 176.234,200.292 175.5,201.5C 171.259,202.739 168.259,205.406 166.5,209.5C 162.5,208.833 160.833,210.5 161.5,214.5C 156.938,215.153 153.938,213.319 152.5,209C 150.846,208.392 149.179,207.892 147.5,207.5C 147.5,205.833 147.5,204.167 147.5,202.5C 144.447,202.428 141.781,201.428 139.5,199.5C 139.326,197.139 138.993,194.806 138.5,192.5C 142.565,188.441 146.232,184.107 149.5,179.5C 152.563,177.949 155.229,175.782 157.5,173C 158.448,172.517 159.448,172.351 160.5,172.5 Z"/></g>
<g><path style="opacity:1" fill="#000" d="M 169.5,181.5 C 171.167,182.5 172.5,183.833 173.5,185.5C 170.858,185.512 169.525,184.179 169.5,181.5 Z"/></g>
<g><path style="opacity:0.643" fill="#000" d="M 149.5,179.5 C 146.232,184.107 142.565,188.441 138.5,192.5C 137.167,193.167 136.167,194.167 135.5,195.5C 134.475,195.103 134.308,194.437 135,193.5C 139.702,188.63 144.535,183.963 149.5,179.5 Z"/></g>
<g><path style="opacity:1" fill="#000" d="M 222.5,183.5 C 226.238,185.697 229.571,188.364 232.5,191.5C 229.404,191.081 226.737,189.748 224.5,187.5C 223.295,186.423 222.628,185.09 222.5,183.5 Z"/></g>
<g><path style="opacity:0.863" fill="#000" d="M 93.5,184.5 C 92.4154,186.587 90.7488,187.92 88.5,188.5C 89.5846,186.413 91.2512,185.08 93.5,184.5 Z"/></g>
<g><path style="opacity:1" fill="#000" d="M 173.5,185.5 C 176.5,187.833 179.167,190.5 181.5,193.5C 181.167,194.833 180.833,196.167 180.5,197.5C 180.167,197.5 179.833,197.5 179.5,197.5C 179.643,195.738 179.309,194.071 178.5,192.5C 174.862,191.534 173.195,189.201 173.5,185.5 Z"/></g>
<g><path style="opacity:0.322" fill="#000" d="M 234.5,192.5 C 236.587,193.585 237.92,195.251 238.5,197.5C 236.413,196.415 235.08,194.749 234.5,192.5 Z"/></g>
<g><path style="opacity:1" fill="#000" d="M 88.5,188.5 C 86.6286,191.061 84.6286,193.561 82.5,196C 81.552,196.483 80.552,196.649 79.5,196.5C 81.8998,193.097 84.8998,190.43 88.5,188.5 Z"/></g>
<g><path style="opacity:1" fill="#000" d="M 232.5,191.5 C 233.167,191.833 233.833,192.167 234.5,192.5C 235.08,194.749 236.413,196.415 238.5,197.5C 239.5,197.833 240.167,198.5 240.5,199.5C 240.5,200.167 240.5,200.833 240.5,201.5C 236.731,199.063 234.064,195.729 232.5,191.5 Z"/></g>
<g><path style="opacity:0.988" fill="#000" d="M 133.5,186.5 C 133.833,186.5 134.167,186.5 134.5,186.5C 129.833,191.833 124.833,196.833 119.5,201.5C 120.63,199.685 121.296,197.685 121.5,195.5C 122.5,195.5 123.5,195.5 124.5,195.5C 124.5,194.5 124.5,193.5 124.5,192.5C 127.921,192.762 128.921,191.428 127.5,188.5C 129.495,187.705 131.495,187.039 133.5,186.5 Z"/></g>
<g><path style="opacity:0.004" fill="#000" d="M 181.5,193.5 C 182.853,195.128 182.519,196.462 180.5,197.5C 180.833,196.167 181.167,194.833 181.5,193.5 Z"/></g>
<g><path style="opacity:1" fill="#000" d="M 138.5,192.5 C 138.993,194.806 139.326,197.139 139.5,199.5C 137.833,198.5 136.5,197.167 135.5,195.5C 136.167,194.167 137.167,193.167 138.5,192.5 Z"/></g>
<g><path style="opacity:1" fill="#000" d="M 211.5,214.5 C 203.833,207.5 196.5,200.167 189.5,192.5C 190.695,192.678 191.862,193.011 193,193.5C 194.758,191.231 196.592,191.065 198.5,193C 197.529,194.204 196.529,194.704 195.5,194.5C 197.633,196.091 199.299,198.091 200.5,200.5C 201.386,199.675 201.719,198.675 201.5,197.5C 203.929,197.884 206.263,198.551 208.5,199.5C 208.657,200.873 208.49,202.207 208,203.5C 204.866,205.739 205.2,207.739 209,209.5C 210.482,207.888 212.315,206.888 214.5,206.5C 214.297,208.638 213.297,210.305 211.5,211.5C 212.791,212.527 212.791,213.527 211.5,214.5 Z"/></g>
<g><path style="opacity:0.969" fill="#000" d="M 179.5,197.5 C 178.833,199.5 177.5,200.833 175.5,201.5C 176.234,200.292 176.567,198.959 176.5,197.5C 177.5,197.5 178.5,197.5 179.5,197.5 Z"/></g>
<g><path style="opacity:1" fill="#000" d="M 79.5,196.5 C 78.9709,200.033 76.9709,202.367 73.5,203.5C 74.7573,200.573 76.7573,198.239 79.5,196.5 Z"/></g>
<g><path style="opacity:0.835" fill="#000" d="M 240.5,199.5 C 242.587,200.585 243.92,202.251 244.5,204.5C 243.167,203.5 241.833,202.5 240.5,201.5C 240.5,200.833 240.5,200.167 240.5,199.5 Z"/></g>
<g><path style="opacity:1" fill="#000" d="M 240.5,201.5 C 241.833,202.5 243.167,203.5 244.5,204.5C 246.262,205.262 247.262,206.596 247.5,208.5C 244.057,207.284 241.724,204.951 240.5,201.5 Z"/></g>
<g><path style="opacity:1" fill="#000" d="M 144.5,169.5 C 144.804,170.15 145.137,170.817 145.5,171.5C 143.995,172.842 143.328,174.508 143.5,176.5C 142.5,176.5 141.5,176.5 140.5,176.5C 140.5,177.833 140.5,179.167 140.5,180.5C 139.842,179.602 139.176,178.602 138.5,177.5C 137.833,178.833 137.167,180.167 136.5,181.5C 135.549,180.674 134.549,180.508 133.5,181C 132.862,182.707 132.862,184.54 133.5,186.5C 131.495,187.039 129.495,187.705 127.5,188.5C 128.921,191.428 127.921,192.762 124.5,192.5C 124.5,193.5 124.5,194.5 124.5,195.5C 123.5,195.5 122.5,195.5 121.5,195.5C 121.296,197.685 120.63,199.685 119.5,201.5C 119.5,202.167 119.167,202.5 118.5,202.5C 111.549,203.817 107.216,207.817 105.5,214.5C 104.167,215.167 103.167,216.167 102.5,217.5C 99.8527,217.929 97.8527,219.262 96.5,221.5C 93.161,224.991 89.3277,227.991 85,230.5C 84.187,232.436 83.687,234.436 83.5,236.5C 81.5,239.167 79.1667,241.5 76.5,243.5C 71.9895,243.263 69.1562,245.263 68,249.5C 67.586,249.043 67.086,248.709 66.5,248.5C 65.3652,250.707 64.6985,253.04 64.5,255.5C 63.5,255.833 62.8333,256.5 62.5,257.5C 59.5,257.167 58.1667,258.5 58.5,261.5C 57.1667,261.5 55.8333,261.5 54.5,261.5C 54.5,260.167 54.5,258.833 54.5,257.5C 55.1174,257.389 55.6174,257.056 56,256.5C 57.1888,246.275 59.0221,236.275 61.5,226.5C 61.5,225.167 61.5,223.833 61.5,222.5C 64.9478,220.614 66.6144,217.614 66.5,213.5C 68.4077,212.514 69.4077,210.848 69.5,208.5C 71.5869,207.415 72.9202,205.749 73.5,203.5C 76.9709,202.367 78.9709,200.033 79.5,196.5C 80.552,196.649 81.552,196.483 82.5,196C 84.6286,193.561 86.6286,191.061 88.5,188.5C 90.7488,187.92 92.4154,186.587 93.5,184.5C 94.1667,184.5 94.8333,184.5 95.5,184.5C 98.5497,183.923 100.55,185.09 101.5,188C 104.669,188.997 107.336,188.33 109.5,186C 101.312,186.023 99.9791,183.19 105.5,177.5C 110.207,176.64 114.541,174.973 118.5,172.5C 121.152,172.59 123.485,171.924 125.5,170.5C 125.833,170.5 126.167,170.5 126.5,170.5C 132.491,170.034 138.491,169.701 144.5,169.5 Z"/></g>
<g><path style="opacity:1" fill="#000" d="M 139.5,199.5 C 141.781,201.428 144.447,202.428 147.5,202.5C 147.5,204.167 147.5,205.833 147.5,207.5C 144.5,205.167 141.833,202.5 139.5,199.5 Z"/></g>
<g><path style="opacity:0.702" fill="#000" d="M 73.5,203.5 C 72.9202,205.749 71.5869,207.415 69.5,208.5C 70.0798,206.251 71.4131,204.585 73.5,203.5 Z"/></g>
<g><path style="opacity:0.988" fill="#000" d="M 118.5,202.5 C 114.806,206.86 110.806,210.86 106.5,214.5C 106.167,214.5 105.833,214.5 105.5,214.5C 107.216,207.817 111.549,203.817 118.5,202.5 Z"/></g>
<g><path style="opacity:0.408" fill="#000" d="M 247.5,208.5 C 248.906,208.973 249.573,209.973 249.5,211.5C 248.094,211.027 247.427,210.027 247.5,208.5 Z"/></g>
<g><path style="opacity:1" fill="#000" d="M 69.5,208.5 C 69.4077,210.848 68.4077,212.514 66.5,213.5C 66.7497,211.326 67.7497,209.659 69.5,208.5 Z"/></g>
<g><path style="opacity:1" fill="#000" d="M 175.5,201.5 C 170.542,207.791 164.875,213.458 158.5,218.5C 154.479,215.146 150.812,211.479 147.5,207.5C 149.179,207.892 150.846,208.392 152.5,209C 153.938,213.319 156.938,215.153 161.5,214.5C 160.833,210.5 162.5,208.833 166.5,209.5C 168.259,205.406 171.259,202.739 175.5,201.5 Z"/></g>
<g><path style="opacity:0.282" fill="#000" d="M 249.5,211.5 C 250.906,211.973 251.573,212.973 251.5,214.5C 250.094,214.027 249.427,213.027 249.5,211.5 Z"/></g>
<g><path style="opacity:0.004" fill="#000" d="M 105.5,214.5 C 105.833,214.5 106.167,214.5 106.5,214.5C 105.738,216.262 104.404,217.262 102.5,217.5C 103.167,216.167 104.167,215.167 105.5,214.5 Z"/></g>
<g><path style="opacity:1" fill="#000" d="M 66.5,213.5 C 66.6144,217.614 64.9478,220.614 61.5,222.5C 62.4097,219.008 64.0764,216.008 66.5,213.5 Z"/></g>
<g><path style="opacity:0.988" fill="#000" d="M 102.5,217.5 C 101.167,220.167 99.1667,222.167 96.5,223.5C 96.5,222.833 96.5,222.167 96.5,221.5C 97.8527,219.262 99.8527,217.929 102.5,217.5 Z"/></g>
<g><path style="opacity:1" fill="#000" d="M 251.5,214.5 C 253.341,216.849 254.674,219.515 255.5,222.5C 254.5,222.5 253.5,222.5 252.5,222.5C 252.167,219.833 251.833,217.167 251.5,214.5 Z"/></g>
<g><path style="opacity:0.004" fill="#000" d="M 96.5,223.5 C 96.5,224.833 95.8333,225.5 94.5,225.5C 94.8333,224.5 95.5,223.833 96.5,223.5 Z"/></g>
<g><path style="opacity:0.922" fill="#000" d="M 61.5,222.5 C 61.5,223.833 61.5,225.167 61.5,226.5C 60.7281,227.694 59.7281,228.694 58.5,229.5C 58.9348,226.843 59.9348,224.509 61.5,222.5 Z"/></g>
<g><path style="opacity:0.004" fill="#000" d="M 94.5,225.5 C 94.5,226.833 93.8333,227.5 92.5,227.5C 92.8333,226.5 93.5,225.833 94.5,225.5 Z"/></g>
<g><path style="opacity:1" fill="#000" d="M 96.5,221.5 C 96.5,222.167 96.5,222.833 96.5,223.5C 95.5,223.833 94.8333,224.5 94.5,225.5C 93.5,225.833 92.8333,226.5 92.5,227.5C 89.8333,230.833 86.8333,233.833 83.5,236.5C 83.687,234.436 84.187,232.436 85,230.5C 89.3277,227.991 93.161,224.991 96.5,221.5 Z"/></g>
<g><path style="opacity:0.706" fill="#000" d="M 157.5,224.5 C 157.57,228.425 156.903,232.091 155.5,235.5C 155.43,231.575 156.097,227.909 157.5,224.5 Z"/></g>
<g><path style="opacity:0.106" fill="#000" d="M 159.5,224.5 C 161.163,226.438 161.829,228.772 161.5,231.5C 160.076,229.485 159.41,227.152 159.5,224.5 Z"/></g>
<g><path style="opacity:0.718" fill="#000" d="M 258.5,229.5 C 260.277,232.505 261.277,235.838 261.5,239.5C 259.723,236.495 258.723,233.162 258.5,229.5 Z"/></g>
<g><path style="opacity:0.804" fill="#000" d="M 58.5,230.5 C 58.0743,234.427 57.0743,238.093 55.5,241.5C 55.5165,237.466 56.5165,233.799 58.5,230.5 Z"/></g>
<g><path style="opacity:1" fill="#000" d="M 229.5,232.5 C 231.979,233.974 234.646,234.974 237.5,235.5C 237.351,234.448 237.517,233.448 238,232.5C 239.927,234.593 239.76,236.593 237.5,238.5C 238.515,239.681 239.681,240.681 241,241.5C 242.482,239.888 244.315,238.888 246.5,238.5C 246.756,240.912 245.756,242.579 243.5,243.5C 244.791,244.527 244.791,245.527 243.5,246.5C 238.5,242.167 233.833,237.5 229.5,232.5 Z"/></g>
<g><path style="opacity:0.239" fill="#000" d="M 161.5,234.5 C 162.687,237.946 163.354,241.613 163.5,245.5C 161.918,242.124 161.251,238.458 161.5,234.5 Z"/></g>
<g><path style="opacity:1" fill="#000" d="M 76.5,243.5 C 72.8333,247.833 68.8333,251.833 64.5,255.5C 64.6985,253.04 65.3652,250.707 66.5,248.5C 67.086,248.709 67.586,249.043 68,249.5C 69.1562,245.263 71.9895,243.263 76.5,243.5 Z"/></g>
<g><path style="opacity:1" fill="#000" d="M 255.5,222.5 C 257.065,224.509 258.065,226.843 258.5,229.5C 258.723,233.162 259.723,236.495 261.5,239.5C 262.301,241.042 262.634,242.708 262.5,244.5C 262.5,246.5 262.5,248.5 262.5,250.5C 261.883,250.389 261.383,250.056 261,249.5C 258.743,240.634 256.91,231.634 255.5,222.5 Z"/></g>
<g><path style="opacity:1" fill="#000" d="M 61.5,226.5 C 59.0221,236.275 57.1888,246.275 56,256.5C 55.6174,257.056 55.1174,257.389 54.5,257.5C 54.5,253.833 54.5,250.167 54.5,246.5C 54.2155,244.585 54.5489,242.919 55.5,241.5C 57.0743,238.093 58.0743,234.427 58.5,230.5C 58.5,230.167 58.5,229.833 58.5,229.5C 59.7281,228.694 60.7281,227.694 61.5,226.5 Z"/></g>
<g><path style="opacity:1" fill="#000" d="M 243.5,246.5 C 246.622,248.63 249.955,250.297 253.5,251.5C 253.351,250.448 253.517,249.448 254,248.5C 254.667,249.833 255.333,249.833 256,248.5C 255.936,252.638 257.103,256.304 259.5,259.5C 258.167,259.167 256.833,258.833 255.5,258.5C 251.167,254.833 247.167,250.833 243.5,246.5 Z"/></g>
<g><path style="opacity:0.004" fill="#000" d="M 64.5,255.5 C 64.5,256.833 63.8333,257.5 62.5,257.5C 62.8333,256.5 63.5,255.833 64.5,255.5 Z"/></g>
<g><path style="opacity:0.804" fill="#000" d="M 262.5,244.5 C 263.628,250.663 264.128,256.997 264,263.5C 263.577,264.956 262.744,265.456 261.5,265C 259.294,262.963 257.294,260.797 255.5,258.5C 256.833,258.833 258.167,259.167 259.5,259.5C 259.811,260.478 260.478,261.145 261.5,261.5C 262.489,257.893 262.823,254.226 262.5,250.5C 262.5,248.5 262.5,246.5 262.5,244.5 Z"/></g>
<g><path style="opacity:1" fill="#000" d="M 54.5,246.5 C 54.5,250.167 54.5,253.833 54.5,257.5C 54.5,258.833 54.5,260.167 54.5,261.5C 55.8333,261.5 57.1667,261.5 58.5,261.5C 58.1667,258.5 59.5,257.167 62.5,257.5C 60.9048,260.931 58.4048,263.598 55,265.5C 54.6667,265.167 54.3333,264.833 54,264.5C 53.1808,258.319 53.3475,252.319 54.5,246.5 Z"/></g>
<g><path style="opacity:1" fill="#000" d="M 159.5,224.5 C 159.41,227.152 160.076,229.485 161.5,231.5C 161.5,232.5 161.5,233.5 161.5,234.5C 161.251,238.458 161.918,242.124 163.5,245.5C 166.037,257.72 168.037,270.053 169.5,282.5C 169.251,286.458 169.918,290.124 171.5,293.5C 172.15,295.435 172.483,297.435 172.5,299.5C 172.167,299.5 171.833,299.5 171.5,299.5C 167.706,295.539 166.706,290.872 168.5,285.5C 165.234,268.242 162.067,250.908 159,233.5C 156.063,243.259 154.063,253.259 153,263.5C 152.362,266.601 151.195,269.268 149.5,271.5C 150.857,259.359 152.857,247.359 155.5,235.5C 156.903,232.091 157.57,228.425 157.5,224.5C 158.167,223.167 158.833,223.167 159.5,224.5 Z"/></g>
<g><path style="opacity:1" fill="#000" d="M 171.5,299.5 C 172.853,310.782 174.02,322.115 175,333.5C 175.417,334.756 176.25,335.423 177.5,335.5C 177.5,336.167 177.5,336.833 177.5,337.5C 178.037,342.739 177.37,347.739 175.5,352.5C 176.689,353.429 178.022,353.762 179.5,353.5C 179.5,355.167 179.5,356.833 179.5,358.5C 165.833,358.5 152.167,358.5 138.5,358.5C 139.79,346.972 140.79,335.306 141.5,323.5C 141.795,321.577 142.628,319.91 144,318.5C 144.333,315.167 144.667,311.833 145,308.5C 146.298,307.44 147.465,306.274 148.5,305C 147.453,303.32 146.787,301.486 146.5,299.5C 147.276,294.193 147.609,288.86 147.5,283.5C 147.539,279.267 148.205,275.267 149.5,271.5C 151.195,269.268 152.362,266.601 153,263.5C 154.063,253.259 156.063,243.259 159,233.5C 162.067,250.908 165.234,268.242 168.5,285.5C 166.706,290.872 167.706,295.539 171.5,299.5 Z"/></g>
<g><path style="opacity:0.224" fill="#000" d="M 169.5,282.5 C 170.687,285.946 171.354,289.613 171.5,293.5C 169.918,290.124 169.251,286.458 169.5,282.5 Z"/></g>
<g><path style="opacity:1" fill="#000" d="M 147.5,283.5 C 147.609,288.86 147.276,294.193 146.5,299.5C 146.787,301.486 147.453,303.32 148.5,305C 147.465,306.274 146.298,307.44 145,308.5C 144.667,311.833 144.333,315.167 144,318.5C 142.628,319.91 141.795,321.577 141.5,323.5C 141.167,323.5 140.833,323.5 140.5,323.5C 142.421,309.966 144.755,296.633 147.5,283.5 Z"/></g>
<g><path style="opacity:1" fill="#000" d="M 171.5,299.5 C 171.833,299.5 172.167,299.5 172.5,299.5C 174.629,309.732 176.296,320.065 177.5,330.5C 177.5,332.167 177.5,333.833 177.5,335.5C 176.25,335.423 175.417,334.756 175,333.5C 174.02,322.115 172.853,310.782 171.5,299.5 Z"/></g>
<g><path style="opacity:0.2" fill="#000" d="M 177.5,330.5 C 178.687,333.946 179.354,337.613 179.5,341.5C 178.833,340.167 178.167,338.833 177.5,337.5C 177.5,336.833 177.5,336.167 177.5,335.5C 177.5,333.833 177.5,332.167 177.5,330.5 Z"/></g>
<g><path style="opacity:1" fill="#000" d="M 140.5,323.5 C 140.833,323.5 141.167,323.5 141.5,323.5C 140.79,335.306 139.79,346.972 138.5,358.5C 152.167,358.5 165.833,358.5 179.5,358.5C 179.5,356.833 179.5,355.167 179.5,353.5C 178.022,353.762 176.689,353.429 175.5,352.5C 177.37,347.739 178.037,342.739 177.5,337.5C 178.167,338.833 178.833,340.167 179.5,341.5C 180.552,345.426 181.218,349.426 181.5,353.5C 180.539,355.265 180.205,357.265 180.5,359.5C 165.833,359.5 151.167,359.5 136.5,359.5C 137.62,355.684 137.62,352.017 136.5,348.5C 137.51,340.105 138.844,331.771 140.5,323.5 Z"/></g>
<g><path style="opacity:1" fill="#000" d="M 136.5,348.5 C 137.62,352.017 137.62,355.684 136.5,359.5C 151.167,359.5 165.833,359.5 180.5,359.5C 180.205,357.265 180.539,355.265 181.5,353.5C 181.5,353.833 181.5,354.167 181.5,354.5C 181.5,356.5 181.5,358.5 181.5,360.5C 166.167,360.5 150.833,360.5 135.5,360.5C 134.876,360.083 134.543,359.416 134.5,358.5C 135.169,355.148 135.836,351.815 136.5,348.5 Z"/></g>
<g><path style="opacity:0.259" fill="#000" d="M 181.5,354.5 C 182.468,356.607 182.802,358.941 182.5,361.5C 166.658,361.83 150.991,361.496 135.5,360.5C 150.833,360.5 166.167,360.5 181.5,360.5C 181.5,358.5 181.5,356.5 181.5,354.5 Z"/></g>
</svg>
